<svg width="180" height="46" viewBox="0 0 180 46" fill="none" xmlns="http://www.w3.org/2000/svg">
<path d="M23.7 20.3002H24.7C25.3 20.3002 25.7 19.9002 25.7 19.3002C25.7 18.7002 25.3 18.3002 24.7 18.3002H23.7C21.6 18.3002 20 16.6002 20 14.4002C20 12.3002 21.6 10.6002 23.6 10.5002V12.6002L26.4 9.7002L23.6 6.7002V8.4002C20.6 8.6002 18 11.2002 18 14.4002C18 17.7002 20.5 20.3002 23.7 20.3002Z" fill="#0097E0"/>
<path d="M56.4002 18.6001H55.4002C54.8002 18.6001 54.4002 19.0001 54.4002 19.6001C54.4002 20.2001 54.8002 20.6001 55.4002 20.6001H56.4002C58.5002 20.6001 60.1002 22.3001 60.1002 24.5001C60.1002 26.6001 58.5002 28.3001 56.5002 28.4001V26.3001L53.7002 29.0001L56.5002 32.0001V30.3001C59.5002 30.2001 62.0002 27.7001 62.0002 24.4001C62.1002 21.1001 59.6002 18.6001 56.4002 18.6001Z" fill="#0097E0"/>
<path d="M47.9002 15.3003H32.5002C30.4002 15.3003 28.7002 17.1003 28.7002 19.2003C28.7002 21.3003 30.4002 23.1003 32.5002 23.1003H47.9002C50.0002 23.1003 51.7002 21.3003 51.7002 19.2003C51.7002 17.1003 50.0002 15.3003 47.9002 15.3003Z" fill="#85CDF0"/>
<path d="M47.9002 25H32.5002C30.4002 25 28.7002 26.8 28.7002 28.9C28.7002 31 30.4002 32.8 32.5002 32.8H47.9002C50.0002 32.8 51.7002 31 51.7002 28.9C51.7002 26.8 50.0002 25 47.9002 25Z" fill="#85CDF0"/>
<path d="M47.9002 5.1001H32.5002C30.4002 5.1001 28.7002 6.9001 28.7002 9.0001C28.7002 11.2001 30.4002 12.9001 32.5002 12.9001H47.9002C50.0002 12.9001 51.7002 11.1001 51.7002 9.0001C51.7002 6.8001 50.0002 5.1001 47.9002 5.1001Z" fill="#85CDF0"/>
<path d="M87.87 22.168C87.87 19.462 87.892 17.504 86.308 15.92C85.208 14.82 83.866 14.204 82.084 14.204C80.302 14.204 78.938 14.82 77.838 15.92C76.254 17.504 76.298 19.462 76.298 22.168C76.298 24.874 76.254 26.832 77.838 28.416C78.938 29.516 80.302 30.132 82.084 30.132C83.866 30.132 85.208 29.516 86.308 28.416C87.892 26.832 87.87 24.874 87.87 22.168ZM84.812 22.168C84.812 25.182 84.636 25.908 84.042 26.568C83.602 27.074 82.92 27.404 82.084 27.404C81.248 27.404 80.544 27.074 80.104 26.568C79.51 25.908 79.356 25.182 79.356 22.168C79.356 19.154 79.51 18.428 80.104 17.768C80.544 17.262 81.248 16.932 82.084 16.932C82.92 16.932 83.602 17.262 84.042 17.768C84.636 18.428 84.812 19.154 84.812 22.168ZM100.29 30V22.674C100.29 21.42 100.048 20.342 99.1242 19.418C98.4862 18.78 97.5622 18.406 96.4182 18.406C95.3622 18.406 94.3062 18.802 93.5582 19.594V18.538H90.7642V30H93.6242V23.07C93.6242 21.508 94.6362 20.98 95.5382 20.98C96.4402 20.98 97.4302 21.508 97.4302 23.07V30H100.29ZM112.792 25.16V23.884C112.792 20.738 110.988 18.406 107.798 18.406C104.828 18.406 102.804 20.518 102.804 24.258C102.804 28.9 105.4 30.132 108.106 30.132C110.174 30.132 111.296 29.494 112.462 28.328L110.724 26.634C109.998 27.36 109.382 27.712 108.128 27.712C106.522 27.712 105.62 26.634 105.62 25.16H112.792ZM109.976 23.202H105.62C105.642 22.696 105.708 22.388 105.884 21.97C106.192 21.288 106.83 20.782 107.798 20.782C108.766 20.782 109.404 21.288 109.712 21.97C109.888 22.388 109.954 22.696 109.976 23.202ZM125.966 17.064V14.336H115.648V30H118.706V23.642H124.888V20.914H118.706V17.064H125.966ZM133.267 30V27.58H132.167C131.441 27.58 131.155 27.228 131.155 26.546V14.336H128.295V26.722C128.295 28.35 129.285 30 131.639 30H133.267ZM144.347 24.258C144.347 22.19 144.083 20.892 143.049 19.814C142.345 19.066 141.179 18.406 139.485 18.406C137.791 18.406 136.647 19.066 135.943 19.814C134.909 20.892 134.645 22.19 134.645 24.258C134.645 26.348 134.909 27.646 135.943 28.724C136.647 29.472 137.791 30.132 139.485 30.132C141.179 30.132 142.345 29.472 143.049 28.724C144.083 27.646 144.347 26.348 144.347 24.258ZM141.487 24.258C141.487 25.446 141.421 26.458 140.827 27.052C140.497 27.382 140.057 27.558 139.485 27.558C138.913 27.558 138.495 27.382 138.165 27.052C137.571 26.458 137.505 25.446 137.505 24.258C137.505 23.07 137.571 22.08 138.165 21.486C138.495 21.156 138.913 20.98 139.485 20.98C140.057 20.98 140.497 21.156 140.827 21.486C141.421 22.08 141.487 23.07 141.487 24.258ZM161.907 18.538H158.893L157.045 25.622L154.691 18.538H152.601L150.269 25.622L148.421 18.538H145.385L148.905 30H151.259L153.657 22.806L156.055 30H158.409L161.907 18.538Z" fill="#045E8A"/>
</svg>
