<svg width="148" height="40" viewBox="0 0 148 40" fill="none" xmlns="http://www.w3.org/2000/svg">
<path d="M60.87 21.168C60.87 18.462 60.892 16.504 59.308 14.92C58.208 13.82 56.866 13.204 55.084 13.204C53.302 13.204 51.938 13.82 50.838 14.92C49.254 16.504 49.298 18.462 49.298 21.168C49.298 23.874 49.254 25.832 50.838 27.416C51.938 28.516 53.302 29.132 55.084 29.132C56.866 29.132 58.208 28.516 59.308 27.416C60.892 25.832 60.87 23.874 60.87 21.168ZM57.812 21.168C57.812 24.182 57.636 24.908 57.042 25.568C56.602 26.074 55.92 26.404 55.084 26.404C54.248 26.404 53.544 26.074 53.104 25.568C52.51 24.908 52.356 24.182 52.356 21.168C52.356 18.154 52.51 17.428 53.104 16.768C53.544 16.262 54.248 15.932 55.084 15.932C55.92 15.932 56.602 16.262 57.042 16.768C57.636 17.428 57.812 18.154 57.812 21.168ZM73.2902 29V21.674C73.2902 20.42 73.0482 19.342 72.1242 18.418C71.4862 17.78 70.5622 17.406 69.4182 17.406C68.3622 17.406 67.3062 17.802 66.5582 18.594V17.538H63.7642V29H66.6242V22.07C66.6242 20.508 67.6362 19.98 68.5382 19.98C69.4402 19.98 70.4302 20.508 70.4302 22.07V29H73.2902ZM85.7915 24.16V22.884C85.7915 19.738 83.9875 17.406 80.7975 17.406C77.8275 17.406 75.8035 19.518 75.8035 23.258C75.8035 27.9 78.3995 29.132 81.1055 29.132C83.1735 29.132 84.2955 28.494 85.4615 27.328L83.7235 25.634C82.9975 26.36 82.3815 26.712 81.1275 26.712C79.5215 26.712 78.6195 25.634 78.6195 24.16H85.7915ZM82.9755 22.202H78.6195C78.6415 21.696 78.7075 21.388 78.8835 20.97C79.1915 20.288 79.8295 19.782 80.7975 19.782C81.7655 19.782 82.4035 20.288 82.7115 20.97C82.8875 21.388 82.9535 21.696 82.9755 22.202ZM98.9663 16.064V13.336H88.6483V29H91.7063V22.642H97.8883V19.914H91.7063V16.064H98.9663ZM106.267 29V26.58H105.167C104.441 26.58 104.155 26.228 104.155 25.546V13.336H101.295V25.722C101.295 27.35 102.285 29 104.639 29H106.267ZM117.347 23.258C117.347 21.19 117.083 19.892 116.049 18.814C115.345 18.066 114.179 17.406 112.485 17.406C110.791 17.406 109.647 18.066 108.943 18.814C107.909 19.892 107.645 21.19 107.645 23.258C107.645 25.348 107.909 26.646 108.943 27.724C109.647 28.472 110.791 29.132 112.485 29.132C114.179 29.132 115.345 28.472 116.049 27.724C117.083 26.646 117.347 25.348 117.347 23.258ZM114.487 23.258C114.487 24.446 114.421 25.458 113.827 26.052C113.497 26.382 113.057 26.558 112.485 26.558C111.913 26.558 111.495 26.382 111.165 26.052C110.571 25.458 110.505 24.446 110.505 23.258C110.505 22.07 110.571 21.08 111.165 20.486C111.495 20.156 111.913 19.98 112.485 19.98C113.057 19.98 113.497 20.156 113.827 20.486C114.421 21.08 114.487 22.07 114.487 23.258ZM134.907 17.538H131.893L130.045 24.622L127.691 17.538H125.601L123.269 24.622L121.421 17.538H118.385L121.905 29H124.259L126.657 21.806L129.055 29H131.409L134.907 17.538Z" fill="url(#paint0_linear_70_12983)"/>
<path opacity="0.5" fill-rule="evenodd" clip-rule="evenodd" d="M19 17L28.5 22.7L38 28.4L19 40L0 28.8L9.5 23.1L19 17.4V17Z" fill="url(#paint1_linear_70_12983)"/>
<path opacity="0.5" d="M19 0L0 11.1429V29L19 17V0Z" fill="url(#paint2_linear_70_12983)"/>
<g opacity="0.92">
<path d="M3 17L8 20V24L3 21V17Z" fill="#1648D5"/>
<path fill-rule="evenodd" clip-rule="evenodd" d="M8 14L5.5 15.5L3 17L8 20L13 17L10.5 15.5L8 14Z" fill="url(#paint3_linear_70_12983)"/>
<path d="M13 17L8 20V24L13 21V17Z" fill="#6CB2F7"/>
</g>
<g opacity="0.92">
<path d="M12 12L17 15V29L12 26V12Z" fill="#1648D5"/>
<path fill-rule="evenodd" clip-rule="evenodd" d="M17 9L14.5 10.5L12 12L17 15L22 12L19.5 10.5L17 9Z" fill="url(#paint4_linear_70_12983)"/>
<path d="M22 12L17 15V29L22 26V12Z" fill="#6CB2F7"/>
</g>
<g opacity="0.92">
<path d="M22 8L27 11V35L22 32V8Z" fill="#1648D5"/>
<path fill-rule="evenodd" clip-rule="evenodd" d="M27 5L24.5 6.5L22 8L27 11L32 8L29.5 6.5L27 5Z" fill="url(#paint5_linear_70_12983)"/>
<path d="M32 8L27 11V35L32 32V8Z" fill="#6CB2F7"/>
</g>
<defs>
<linearGradient id="paint0_linear_70_12983" x1="163.418" y1="37.7838" x2="163.418" y2="9" gradientUnits="userSpaceOnUse">
<stop stop-color="#6991C7"/>
<stop offset="1" stop-color="white"/>
</linearGradient>
<linearGradient id="paint1_linear_70_12983" x1="34" y1="25.9224" x2="-0.495479" y2="28.9481" gradientUnits="userSpaceOnUse">
<stop stop-color="#62A9EE"/>
<stop offset="1" stop-color="#2873EE" stop-opacity="0.19"/>
</linearGradient>
<linearGradient id="paint2_linear_70_12983" x1="9.5" y1="3" x2="9.5" y2="29" gradientUnits="userSpaceOnUse">
<stop stop-color="#6CB2F7"/>
<stop offset="1" stop-color="#6CB2F7" stop-opacity="0.21"/>
</linearGradient>
<linearGradient id="paint3_linear_70_12983" x1="8" y1="14" x2="8" y2="20" gradientUnits="userSpaceOnUse">
<stop stop-color="#62A9EE"/>
<stop offset="1" stop-color="#2873EE"/>
</linearGradient>
<linearGradient id="paint4_linear_70_12983" x1="17" y1="9" x2="17" y2="15" gradientUnits="userSpaceOnUse">
<stop stop-color="#62A9EE"/>
<stop offset="1" stop-color="#2873EE"/>
</linearGradient>
<linearGradient id="paint5_linear_70_12983" x1="27" y1="5" x2="27" y2="11" gradientUnits="userSpaceOnUse">
<stop stop-color="#62A9EE"/>
<stop offset="1" stop-color="#2873EE"/>
</linearGradient>
</defs>
</svg>
